# Synthetic closed Z-up trunk for end-to-end tool verification
v -0.25 -0.25 0
v 0.25 -0.25 0
v 0.25 0.25 0
v -0.25 0.25 0
v -0.2 -0.2 4
v 0.2 -0.2 4
v 0.2 0.2 4
v -0.2 0.2 4
vt 0 0
vt 1 0
vt 1 1
vn 0.0 0.0 -1.0
vn 0.0 0.0 -1.0
vn 0.0 0.0 1.0
vn 0.0 0.0 1.0
vn 0.0 -0.9999218841540815 0.012499023551926015
vn 0.0 -0.9999218841540815 0.012499023551926015
vn 0.9999218841540815 -0.0 0.012499023551926015
vn 0.9999218841540815 0.0 0.012499023551926015
vn 0.0 0.9999218841540815 0.012499023551926015
vn 0.0 0.9999218841540815 0.012499023551926015
vn -0.9999218841540815 0.0 0.012499023551926015
vn -0.9999218841540815 0.0 0.012499023551926015
f 1/1/1 3/2/1 2/3/1
f 1/1/2 4/2/2 3/3/2
f 5/1/3 6/2/3 7/3/3
f 5/1/4 7/2/4 8/3/4
f 1/1/5 2/2/5 6/3/5
f 1/1/6 6/2/6 5/3/6
f 2/1/7 3/2/7 7/3/7
f 2/1/8 7/2/8 6/3/8
f 3/1/9 4/2/9 8/3/9
f 3/1/10 8/2/10 7/3/10
f 4/1/11 1/2/11 5/3/11
f 4/1/12 5/2/12 8/3/12
